<svg class="w-10 h-10" viewBox="0 0 87 87" fill="none" xmlns="http://www.w3.org/2000/svg">
  <path fill-rule="evenodd" clip-rule="evenodd" d="M47.2502 36.3242L43.007 0.5625L38.7732 36.2454L23.2272 23.9435L35.3338 39.3772L0 43.5695L35.6768 47.8026L23.1427 63.642L38.8261 51.3396L43.007 86.5766L47.1879 51.3396L62.8413 63.7265L50.3491 47.8012L86.0141 43.5695L50.7711 39.3879L62.9258 24.0279L47.2502 36.3242Z" fill="#8b5cf6"></path>
  <path fill-rule="evenodd" clip-rule="evenodd" d="M47.2502 36.3242L43.007 0.5625L38.7732 36.2454L23.2272 23.9435L35.3338 39.3772L0 43.5695L35.6768 47.8026L23.1427 63.642L38.8261 51.3396L43.007 86.5766L47.1879 51.3396L62.8413 63.7265L50.3491 47.8012L86.0141 43.5695L50.7711 39.3879L62.9258 24.0279L47.2502 36.3242Z" fill="#8b5cf6" fill-opacity="0.2"></path>
</svg>
                  